<svg width="160" height="160" viewBox="0 0 160 160" fill="none" xmlns="http://www.w3.org/2000/svg">
<rect width="160" height="160" rx="8" fill="#1F70BB"/>
<path fill-rule="evenodd" clip-rule="evenodd" d="M102.778 37.9542L97.3654 86.6673L62.6326 86.6673L57.22 37.9542L61.0253 36.6858C73.3413 32.5804 86.6566 32.5804 98.9727 36.6858L102.778 37.9542ZM56.1148 88.0702C56.0681 87.852 56.0318 87.6296 56.0067 87.4035L50.5941 38.6904C50.247 35.5661 52.1296 32.6237 55.1119 31.6297L58.9171 30.3612C72.6016 25.7997 87.3964 25.7997 101.081 30.3612L104.886 31.6297C107.868 32.6237 109.751 35.5661 109.404 38.6904L103.991 87.4035C103.966 87.6294 103.93 87.8516 103.883 88.0695C106.24 89.3465 108.107 91.4112 109.132 93.9105C109.671 93.3183 110 92.5312 110 91.6673V76.6673C110 74.8263 111.492 73.3339 113.333 73.3339H123.333C125.174 73.3339 126.666 74.8263 126.666 76.6673C126.666 78.5082 125.174 80.0006 123.333 80.0006H116.666V91.6673C116.666 96.1544 113.711 99.9512 109.641 101.218C108.357 106.266 103.781 110.001 98.333 110.001H83.333V130.001H99.9997C101.841 130.001 103.333 131.493 103.333 133.334C103.333 135.175 101.841 136.667 99.9997 136.667H79.9997H59.9997C58.1587 136.667 56.6663 135.175 56.6663 133.334C56.6663 131.493 58.1587 130.001 59.9997 130.001H76.6663V110.001H61.6663C56.2182 110.001 51.6423 106.266 50.3588 101.218C46.2884 99.9512 43.333 96.1544 43.333 91.6673V80.0006H36.6663C34.8254 80.0006 33.333 78.5082 33.333 76.6673C33.333 74.8263 34.8254 73.3339 36.6663 73.3339H46.6663C48.5073 73.3339 49.9997 74.8263 49.9997 76.6673V91.6673C49.9997 92.5312 50.3283 93.3183 50.8674 93.9105C51.8921 91.4116 53.7589 89.3472 56.1148 88.0702ZM62.6233 93.3339H61.6663C58.9049 93.3339 56.6663 95.5725 56.6663 98.3339C56.6663 101.095 58.9049 103.334 61.6663 103.334H98.333C101.094 103.334 103.333 101.095 103.333 98.3339C103.333 95.5725 101.094 93.3339 98.333 93.3339H97.3746L97.3654 93.3339H62.6326L62.6233 93.3339Z" fill="white"/>
</svg>
